<svg xmlns="http://www.w3.org/2000/svg" width="512" height="512" viewBox="0 0 512 512"><path d="M184.91 377.36Q138.72 377.36 106.11 361.51Q73.51 345.66 56.75 318.04Q40 290.42 40 254.19Q40 220.68 58.57 193.51Q77.13 166.34 111.55 150.49Q145.96 134.64 194.87 134.64Q262.79 134.64 313.51 158.19Q364.23 181.74 402.72 220.68Q441.21 259.62 472 305.81L416.75 341.13Q384.15 294.04 350.64 261.89Q317.13 229.74 280.45 212.98Q243.77 196.23 199.4 196.23Q152.3 196.23 129.66 212.53Q107.02 228.83 107.02 255.09Q107.02 287.7 129.21 299.92Q151.4 312.15 179.47 312.15Q204.83 312.15 223.85 307.17Q242.87 302.19 261.89 293.13L284.53 356.53Q260.98 365.58 235.17 371.47Q209.36 377.36 184.91 377.36Z" fill="currentColor"/></svg>
