<svg xmlns="http://www.w3.org/2000/svg" width="512" height="512" viewBox="0 0 512 512"><path d="M202.96 422.34Q180.79 422.34 161.02 416.07Q141.25 409.8 124.38 394.62Q107.5 379.43 94 353.88L104.13 325.91Q131.12 322.05 149.93 305.42Q168.73 288.79 168.73 264.68Q168.73 241.54 155.47 229Q142.21 216.46 113.77 216.46Q103.16 216.46 89.9 219.12Q76.64 221.77 65.55 227.07L52.54 194.29Q64.11 188.98 80.98 185.12Q97.86 181.27 115.21 181.27Q144.62 181.27 165.12 191.15Q185.61 201.04 196.46 219.84Q207.3 238.64 207.3 265.64Q207.3 292.16 191.63 313.13Q175.96 334.11 150.41 345.92Q124.86 357.73 94 357.73Q80.98 357.73 72.3 354.36Q63.63 350.98 59.04 344.47Q54.46 337.96 54.46 328.8Q54.46 319.16 61.46 312.17Q68.45 305.18 82.91 305.18Q97.86 305.18 107.5 311.21Q117.14 317.23 127.75 329.77L134.5 348.57Q143.18 367.38 160.54 377.5Q177.89 387.62 200.07 387.62Q218.39 387.62 231.41 382.32Q244.43 377.02 252.62 367.86Q264.68 354.36 268.29 337Q271.91 319.64 271.91 293.12V256.48L310.48 261.3V303.73Q310.48 343.27 296.74 369.79Q283 396.3 258.65 409.32Q234.3 422.34 202.96 422.34ZM338.45 362.07Q326.39 362.07 314.82 357.73Q303.25 353.39 293.61 342.3Q283.96 331.21 277.21 311.45L305.18 300.36Q309.04 315.79 317.71 321.57Q326.39 327.36 337.96 327.36Q355.32 327.36 367.86 317.96Q380.39 308.55 391 292.16L399.2 331.7Q387.14 346.16 373.4 354.12Q359.66 362.07 338.45 362.07ZM450.3 472Q429.57 472 415.83 467.42Q402.09 462.84 393.89 454.16Q386.18 445.96 382.56 433.91Q378.95 421.86 378.95 400.64V181.27L417.52 186.57V398.71Q417.52 411.73 418.96 417.76Q420.41 423.79 423.3 427.64Q428.61 434.39 438.97 435.6Q449.34 436.8 459.46 436.8L455.61 472ZM383.77 162.95Q376.05 128.71 367.86 109.19Q359.66 89.66 348.81 81.71Q337.96 73.75 321.09 73.75Q316.27 73.75 309.28 74.96Q302.29 76.16 296.02 78.57L284.93 45.79Q294.57 42.41 304.7 41.21Q314.82 40 323.5 40Q340.86 40 354.84 45.79Q368.82 51.57 379.91 65.55Q391 79.54 399.68 103.4Q408.36 127.27 414.63 162.95ZM362.07 171.14Q344.71 155.71 330.49 146.55Q316.27 137.39 303.25 133.29Q290.23 129.2 275.77 129.2Q266.61 129.2 259.38 130.64Q252.14 132.09 247.8 134.02L236.71 100.75Q244.43 98.34 253.83 96.89Q263.23 95.45 275.29 95.45Q294.09 95.45 310.48 100.99Q326.88 106.54 343.99 118.83Q361.11 131.12 381.84 151.38Z" fill="currentColor"/></svg>
